# xmcd
#
# Track frame offsets:
#	150
#	9515
#	15653
#	19910
#	29857
#
# Disc length: 645 seconds
#
# Revision: 0
# Processed by: cddbd v1.5.2PL0 Copyright (c) Steve Scherf et al.
# Submitted via: EasyCDDAExtractor 11.9.9.666
#
DISCID=36028305
DTITLE=Various Artist - Joulupukin maistiaislevy
DYEAR=2008
DGENRE=Christmas
TTITLE0=(P.J.Hannikainen), H.Koskela, M.Viitanenn, M. Tuohimaa - Joulupukki
TTITLE1=(Sofie Lithenius), Musakatit - Sinivuorten yö
TTITLE2=(Trad.), Muut, Solisti: Janette Lehto - Pukki ovella kolkuttaa
TTITLE3=(Trad.), Nekut, Jekut, soolo: Anniina Grönberg - On hauskaa tonttuilla
TTITLE4=(Veikko Laiho) Susanna Lehto - Joulurauhaa
EXTD=
EXTT0=
EXTT1=
EXTT2=
EXTT3=
EXTT4=
PLAYORDER=
